o leafs_Cone.001
usemtl Material.001
v 0.520084984600544 3.1771349906921387 -5.203804969787598
v 0.018454999662935734 12.138140201568604 -0.11074000038206577
v 4.331735074520111 3.178105056285858 -2.9927799105644226
v 4.331735074520111 3.178105056285858 -2.9927799105644226
v 0.018454999662935734 12.138140201568604 -0.11074000038206577
v 4.810275137424469 3.1798601150512695 1.8740950524806976
v 4.810275137424469 3.1798601150512695 1.8740950524806976
v 0.018454999662935734 12.138140201568604 -0.11074000038206577
v 1.9559699296951294 3.17656010389328 4.566839933395386
v 1.9559699296951294 3.17656010389328 4.566839933395386
v 0.018454999662935734 12.138140201568604 -0.11074000038206577
v -1.4670799672603607 3.1775298714637756 4.786415100097656
v -1.4670799672603607 3.1775298714637756 4.786415100097656
v 0.018454999662935734 12.138140201568604 -0.11074000038206577
v -4.19108510017395 3.176965117454529 2.701984941959381
v -4.19108510017395 3.176965117454529 2.701984941959381
v 0.018454999662935734 12.138140201568604 -0.11074000038206577
v -5.044565200805664 3.176470100879669 -0.11074500158429146
v -5.044565200805664 3.176470100879669 -0.11074500158429146
v 0.018454999662935734 12.138140201568604 -0.11074000038206577
v -3.648884892463684 3.1802698969841003 -3.7780898809432983
v -3.648884892463684 3.1802698969841003 -3.7780898809432983
v 0.018454999662935734 12.138140201568604 -0.11074000038206577
v 0.520084984600544 3.1771349906921387 -5.203804969787598
v -1.8634499609470367 7.317010164260864 -4.744114875793457
v 0.018454999662935734 13.79384994506836 -0.11074000038206577
v 2.37122505903244 7.315735220909119 -4.475384950637817
v 2.37122505903244 7.315735220909119 -4.475384950637817
v 0.018454999662935734 13.79384994506836 -0.11074000038206577
v 4.947139918804169 7.31737494468689 -1.1036449670791626
v 4.947139918804169 7.31737494468689 -1.1036449670791626
v 0.018454999662935734 13.79384994506836 -0.11074000038206577
v 3.5798150300979614 7.318195104598999 3.4025248885154724
v 3.5798150300979614 7.318195104598999 3.4025248885154724
v 0.018454999662935734 13.79384994506836 -0.11074000038206577
v 0.048119998537003994 7.314894795417786 4.746389985084534
v 0.048119998537003994 7.314894795417786 4.746389985084534
v 0.018454999662935734 13.79384994506836 -0.11074000038206577
v -3.078179955482483 7.31594979763031 3.6802351474761963
v -3.078179955482483 7.31594979763031 3.6802351474761963
v 0.018454999662935734 13.79384994506836 -0.11074000038206577
v -4.581210017204285 7.3147547245025635 1.2751199305057526
v -4.581210017204285 7.3147547245025635 1.2751199305057526
v 0.018454999662935734 13.79384994506836 -0.11074000038206577
v -4.667620062828064 7.316100001335144 -1.5596799552440643
v -4.667620062828064 7.316100001335144 -1.5596799552440643
v 0.018454999662935734 13.79384994506836 -0.11074000038206577
v -1.8634499609470367 7.317010164260864 -4.744114875793457
v 0.7345499843358994 10.970929861068726 -3.8453099131584167
v 0.018454999662935734 17.80447006225586 -0.11074000038206577
v 3.3064550161361694 10.970244407653809 -1.8801149725914001
v 3.3064550161361694 10.970244407653809 -1.8801149725914001
v 0.018454999662935734 17.80447006225586 -0.11074000038206577
v 3.5884198546409607 10.970335006713867 0.983164981007576
v 3.5884198546409607 10.970335006713867 0.983164981007576
v 0.018454999662935734 17.80447006225586 -0.11074000038206577
v 1.449269950389862 10.97141981124878 3.4121298789978027
v 1.449269950389862 10.97141981124878 3.4121298789978027
v 0.018454999662935734 17.80447006225586 -0.11074000038206577
v -1.780879944562912 10.970335006713867 3.2071998715400696
v -1.780879944562912 10.970335006713867 3.2071998715400696
v 0.018454999662935734 17.80447006225586 -0.11074000038206577
v -3.4448450803756714 10.969544649124146 1.3151849806308746
v -3.4448450803756714 10.969544649124146 1.3151849806308746
v 0.018454999662935734 17.80447006225586 -0.11074000038206577
v -3.6562949419021606 10.969924926757812 -0.8335799723863602
v -3.6562949419021606 10.969924926757812 -0.8335799723863602
v 0.018454999662935734 17.80447006225586 -0.11074000038206577
v -2.393600046634674 10.970335006713867 -3.0138999223709106
v -2.393600046634674 10.970335006713867 -3.0138999223709106
v 0.018454999662935734 17.80447006225586 -0.11074000038206577
v 0.7345499843358994 10.970929861068726 -3.8453099131584167
v 4.331735074520111 3.178105056285858 -2.9927799105644226
v 4.810275137424469 3.1798601150512695 1.8740950524806976
v 1.9559699296951294 3.17656010389328 4.566839933395386
v 4.331735074520111 3.178105056285858 -2.9927799105644226
v 1.9559699296951294 3.17656010389328 4.566839933395386
v -1.4670799672603607 3.1775298714637756 4.786415100097656
v 4.331735074520111 3.178105056285858 -2.9927799105644226
v -1.4670799672603607 3.1775298714637756 4.786415100097656
v -4.19108510017395 3.176965117454529 2.701984941959381
v 4.331735074520111 3.178105056285858 -2.9927799105644226
v -4.19108510017395 3.176965117454529 2.701984941959381
v -5.044565200805664 3.176470100879669 -0.11074500158429146
v 4.331735074520111 3.178105056285858 -2.9927799105644226
v -5.044565200805664 3.176470100879669 -0.11074500158429146
v -3.648884892463684 3.1802698969841003 -3.7780898809432983
v 4.331735074520111 3.178105056285858 -2.9927799105644226
v -3.648884892463684 3.1802698969841003 -3.7780898809432983
v 0.520084984600544 3.1771349906921387 -5.203804969787598
v -4.581210017204285 7.3147547245025635 1.2751199305057526
v -4.667620062828064 7.316100001335144 -1.5596799552440643
v -1.8634499609470367 7.317010164260864 -4.744114875793457
v -4.581210017204285 7.3147547245025635 1.2751199305057526
v -1.8634499609470367 7.317010164260864 -4.744114875793457
v 2.37122505903244 7.315735220909119 -4.475384950637817
v -4.581210017204285 7.3147547245025635 1.2751199305057526
v 2.37122505903244 7.315735220909119 -4.475384950637817
v 4.947139918804169 7.31737494468689 -1.1036449670791626
v -4.581210017204285 7.3147547245025635 1.2751199305057526
v 4.947139918804169 7.31737494468689 -1.1036449670791626
v 3.5798150300979614 7.318195104598999 3.4025248885154724
v -4.581210017204285 7.3147547245025635 1.2751199305057526
v 3.5798150300979614 7.318195104598999 3.4025248885154724
v 0.048119998537003994 7.314894795417786 4.746389985084534
v -4.581210017204285 7.3147547245025635 1.2751199305057526
v 0.048119998537003994 7.314894795417786 4.746389985084534
v -3.078179955482483 7.31594979763031 3.6802351474761963
v -3.4448450803756714 10.969544649124146 1.3151849806308746
v -3.6562949419021606 10.969924926757812 -0.8335799723863602
v -2.393600046634674 10.970335006713867 -3.0138999223709106
v -3.4448450803756714 10.969544649124146 1.3151849806308746
v -2.393600046634674 10.970335006713867 -3.0138999223709106
v 0.7345499843358994 10.970929861068726 -3.8453099131584167
v -3.4448450803756714 10.969544649124146 1.3151849806308746
v 0.7345499843358994 10.970929861068726 -3.8453099131584167
v 3.3064550161361694 10.970244407653809 -1.8801149725914001
v -3.4448450803756714 10.969544649124146 1.3151849806308746
v 3.3064550161361694 10.970244407653809 -1.8801149725914001
v 3.5884198546409607 10.970335006713867 0.983164981007576
v -3.4448450803756714 10.969544649124146 1.3151849806308746
v 3.5884198546409607 10.970335006713867 0.983164981007576
v 1.449269950389862 10.97141981124878 3.4121298789978027
v -3.4448450803756714 10.969544649124146 1.3151849806308746
v 1.449269950389862 10.97141981124878 3.4121298789978027
v -1.780879944562912 10.970335006713867 3.2071998715400696
vn 0.08902000188827515 0.09223999977111817 -0.15351999998092652
vn 0.08902000188827515 0.09223999977111817 -0.15351999998092652
vn 0.08902000188827515 0.09223999977111817 -0.15351999998092652
vn 0.1772600054740906 0.09096000194549561 -0.01746000051498413
vn 0.1772600054740906 0.09096000194549561 -0.01746000051498413
vn 0.1772600054740906 0.09096000194549561 -0.01746000051498413
vn 0.12130000591278077 0.0934000015258789 0.12869999408721924
vn 0.12130000591278077 0.0934000015258789 0.12869999408721924
vn 0.12130000591278077 0.0934000015258789 0.12869999408721924
vn 0.011320000141859056 0.09431999921798706 0.17599999904632568
vn 0.011320000141859056 0.09431999921798706 0.17599999904632568
vn 0.011320000141859056 0.09431999921798706 0.17599999904632568
vn -0.10720000267028809 0.09431999921798706 0.14005999565124513
vn -0.10720000267028809 0.09431999921798706 0.14005999565124513
vn -0.10720000267028809 0.09431999921798706 0.14005999565124513
vn -0.16835999488830566 0.0951200008392334 0.0510599970817566
vn -0.16835999488830566 0.0951200008392334 0.0510599970817566
vn -0.16835999488830566 0.0951200008392334 0.0510599970817566
vn -0.16532000303268435 0.0934000015258789 -0.06281999945640564
vn -0.16532000303268435 0.0934000015258789 -0.06281999945640564
vn -0.16532000303268435 0.0934000015258789 -0.06281999945640564
vn -0.05735999941825867 0.09223999977111817 -0.16793999671936036
vn -0.05735999941825867 0.09223999977111817 -0.16793999671936036
vn -0.05735999941825867 0.09223999977111817 -0.16793999671936036
vn 0.010440000146627427 0.11419999599456787 -0.1638599991798401
vn 0.010440000146627427 0.11419999599456787 -0.1638599991798401
vn 0.010440000146627427 0.11419999599456787 -0.1638599991798401
vn 0.13032000064849855 0.11444000005722046 -0.09962000250816345
vn 0.13032000064849855 0.11444000005722046 -0.09962000250816345
vn 0.13032000064849855 0.11444000005722046 -0.09962000250816345
vn 0.1579800009727478 0.11288000345230104 0.04792000055313111
vn 0.1579800009727478 0.11288000345230104 0.04792000055313111
vn 0.1579800009727478 0.11288000345230104 0.04792000055313111
vn 0.05809999704360962 0.11496000289916992 0.15299999713897705
vn 0.05809999704360962 0.11496000289916992 0.15299999713897705
vn 0.05809999704360962 0.11496000289916992 0.15299999713897705
vn -0.05264000296592713 0.11557999849319459 0.1544999957084656
vn -0.05264000296592713 0.11557999849319459 0.1544999957084656
vn -0.05264000296592713 0.11557999849319459 0.1544999957084656
vn -0.13796000480651857 0.11638000011444093 0.08615999817848206
vn -0.13796000480651857 0.11638000011444093 0.08615999817848206
vn -0.13796000480651857 0.11638000011444093 0.08615999817848206
vn -0.16252000331878663 0.11646000146865845 0.005000000074505806
vn -0.16252000331878663 0.11646000146865845 0.005000000074505806
vn -0.16252000331878663 0.11646000146865845 0.005000000074505806
vn -0.1235200047492981 0.11368000507354736 -0.1087399959564209
vn -0.1235200047492981 0.11368000507354736 -0.1087399959564209
vn -0.1235200047492981 0.11368000507354736 -0.1087399959564209
vn 0.10872000455856323 0.08913999795913696 -0.1422600030899048
vn 0.10872000455856323 0.08913999795913696 -0.1422600030899048
vn 0.10872000455856323 0.08913999795913696 -0.1422600030899048
vn 0.1777199983596802 0.09003999829292297 -0.017499999701976778
vn 0.1777199983596802 0.09003999829292297 -0.017499999701976778
vn 0.1777199983596802 0.09003999829292297 -0.017499999701976778
vn 0.1343799948692322 0.08913999795913696 0.11829999685287476
vn 0.1343799948692322 0.08913999795913696 0.11829999685287476
vn 0.1343799948692322 0.08913999795913696 0.11829999685287476
vn -0.01136000007390976 0.08962000012397767 0.178439998626709
vn -0.01136000007390976 0.08962000012397767 0.178439998626709
vn -0.01136000007390976 0.08962000012397767 0.178439998626709
vn -0.13336000442504883 0.09204000234603882 0.11723999977111817
vn -0.13336000442504883 0.09204000234603882 0.11723999977111817
vn -0.13336000442504883 0.09204000234603882 0.11723999977111817
vn -0.17624000310897828 0.09291999936103822 0.01736000031232834
vn -0.17624000310897828 0.09291999936103822 0.01736000031232834
vn -0.17624000310897828 0.09291999936103822 0.01736000031232834
vn -0.15365999937057495 0.09204000234603882 -0.08898000121116639
vn -0.15365999937057495 0.09204000234603882 -0.08898000121116639
vn -0.15365999937057495 0.09204000234603882 -0.08898000121116639
vn -0.04593999981880188 0.08962000012397767 -0.1728000044822693
vn -0.04593999981880188 0.08962000012397767 -0.1728000044822693
vn -0.04593999981880188 0.08962000012397767 -0.1728000044822693
vn 0.000019999999494757503 -0.2 -0.000019999999494757503
vn 0.000019999999494757503 -0.2 -0.000019999999494757503
vn 0.000019999999494757503 -0.2 -0.000019999999494757503
vn 0.000019999999494757503 -0.2 -0.000019999999494757503
vn 0.000019999999494757503 -0.2 -0.000019999999494757503
vn 0.000019999999494757503 -0.2 -0.000019999999494757503
vn 0.000019999999494757503 -0.2 -0.000019999999494757503
vn 0.000019999999494757503 -0.2 -0.000019999999494757503
vn 0.000019999999494757503 -0.2 -0.000019999999494757503
vn 0.000019999999494757503 -0.2 -0.000019999999494757503
vn 0.000019999999494757503 -0.2 -0.000019999999494757503
vn 0.000019999999494757503 -0.2 -0.000019999999494757503
vn 0.000019999999494757503 -0.2 -0.000019999999494757503
vn 0.000019999999494757503 -0.2 -0.000019999999494757503
vn 0.000019999999494757503 -0.2 -0.000019999999494757503
vn 0.000019999999494757503 -0.2 -0.000019999999494757503
vn 0.000019999999494757503 -0.2 -0.000019999999494757503
vn 0.000019999999494757503 -0.2 -0.000019999999494757503
vn 0.000039999998989515007 -0.2 0
vn 0.000039999998989515007 -0.2 0
vn 0.000039999998989515007 -0.2 0
vn 0.000039999998989515007 -0.2 0
vn 0.000039999998989515007 -0.2 0
vn 0.000039999998989515007 -0.2 0
vn 0.000039999998989515007 -0.2 0
vn 0.000039999998989515007 -0.2 0
vn 0.000039999998989515007 -0.2 0
vn 0.000039999998989515007 -0.2 0
vn 0.000039999998989515007 -0.2 0
vn 0.000039999998989515007 -0.2 0
vn 0.000039999998989515007 -0.2 0
vn 0.000039999998989515007 -0.2 0
vn 0.000039999998989515007 -0.2 0
vn 0.000039999998989515007 -0.2 0
vn 0.000039999998989515007 -0.2 0
vn 0.000039999998989515007 -0.2 0
vn 0.000019999999494757503 -0.2 0
vn 0.000019999999494757503 -0.2 0
vn 0.000019999999494757503 -0.2 0
vn 0.000019999999494757503 -0.2 0
vn 0.000019999999494757503 -0.2 0
vn 0.000019999999494757503 -0.2 0
vn 0.000019999999494757503 -0.2 0
vn 0.000019999999494757503 -0.2 0
vn 0.000019999999494757503 -0.2 0
vn 0.000019999999494757503 -0.2 0
vn 0.000019999999494757503 -0.2 0
vn 0.000019999999494757503 -0.2 0
vn 0.000019999999494757503 -0.2 0
vn 0.000019999999494757503 -0.2 0
vn 0.000019999999494757503 -0.2 0
vn 0.000019999999494757503 -0.2 0
vn 0.000019999999494757503 -0.2 0
vn 0.000019999999494757503 -0.2 0
f 1//1 2//2 3//3
f 4//4 5//5 6//6
f 7//7 8//8 9//9
f 10//10 11//11 12//12
f 13//13 14//14 15//15
f 16//16 17//17 18//18
f 19//19 20//20 21//21
f 22//22 23//23 24//24
f 25//25 26//26 27//27
f 28//28 29//29 30//30
f 31//31 32//32 33//33
f 34//34 35//35 36//36
f 37//37 38//38 39//39
f 40//40 41//41 42//42
f 43//43 44//44 45//45
f 46//46 47//47 48//48
f 49//49 50//50 51//51
f 52//52 53//53 54//54
f 55//55 56//56 57//57
f 58//58 59//59 60//60
f 61//61 62//62 63//63
f 64//64 65//65 66//66
f 67//67 68//68 69//69
f 70//70 71//71 72//72
f 73//73 74//74 75//75
f 76//76 77//77 78//78
f 79//79 80//80 81//81
f 82//82 83//83 84//84
f 85//85 86//86 87//87
f 88//88 89//89 90//90
f 91//91 92//92 93//93
f 94//94 95//95 96//96
f 97//97 98//98 99//99
f 100//100 101//101 102//102
f 103//103 104//104 105//105
f 106//106 107//107 108//108
f 109//109 110//110 111//111
f 112//112 113//113 114//114
f 115//115 116//116 117//117
f 118//118 119//119 120//120
f 121//121 122//122 123//123
f 124//124 125//125 126//126
o body_Cone
usemtl Material.002
v 0.16553500667214394 -0.017320000333711505 -1.6807149350643158
v 0 9.881715178489685 0
v 1.1814100295305252 -0.017790000420063734 -1.1814100295305252
v 1.1814100295305252 -0.017790000420063734 -1.1814100295305252
v 0 9.881715178489685 0
v 1.5864300727844238 -0.01822000020183623 -0.48124000430107117
v 1.5864300727844238 -0.01822000020183623 -0.48124000430107117
v 0 9.881715178489685 0
v 1.581300050020218 -0.014624999603256583 0.6549949944019318
v 1.581300050020218 -0.014624999603256583 0.6549949944019318
v 0 9.881715178489685 0
v 0.6393799930810928 -0.017890000017359853 1.5435999631881714
v 0.6393799930810928 -0.017890000017359853 1.5435999631881714
v 0 9.881715178489685 0
v -0.4902249947190285 -0.016929999692365527 1.6160599887371063
v -0.4902249947190285 -0.016929999692365527 1.6160599887371063
v 0 9.881715178489685 0
v -1.3891500234603882 -0.01749000046402216 0.9282000362873077
v -1.3891500234603882 -0.01749000046402216 0.9282000362873077
v 0 9.881715178489685 0
v -1.6707949340343475 -0.017979999538511038 0
v -1.6707949340343475 -0.017979999538511038 0
v 0 9.881715178489685 0
v -1.2102250009775162 -0.014220000011846423 -1.2102250009775162
v -1.2102250009775162 -0.014220000011846423 -1.2102250009775162
v 0 9.881715178489685 0
v 0.16553500667214394 -0.017320000333711505 -1.6807149350643158
v 1.5864300727844238 -0.01822000020183623 -0.48124000430107117
v 1.581300050020218 -0.014624999603256583 0.6549949944019318
v 0.6393799930810928 -0.017890000017359853 1.5435999631881714
v 1.5864300727844238 -0.01822000020183623 -0.48124000430107117
v 0.6393799930810928 -0.017890000017359853 1.5435999631881714
v -0.4902249947190285 -0.016929999692365527 1.6160599887371063
v 1.5864300727844238 -0.01822000020183623 -0.48124000430107117
v -0.4902249947190285 -0.016929999692365527 1.6160599887371063
v -1.3891500234603882 -0.01749000046402216 0.9282000362873077
v 1.5864300727844238 -0.01822000020183623 -0.48124000430107117
v -1.3891500234603882 -0.01749000046402216 0.9282000362873077
v -1.6707949340343475 -0.017979999538511038 0
v 1.5864300727844238 -0.01822000020183623 -0.48124000430107117
v -1.6707949340343475 -0.017979999538511038 0
v -1.2102250009775162 -0.014220000011846423 -1.2102250009775162
v 1.5864300727844238 -0.01822000020183623 -0.48124000430107117
v -1.2102250009775162 -0.014220000011846423 -1.2102250009775162
v 0.16553500667214394 -0.017320000333711505 -1.6807149350643158
v 1.5864300727844238 -0.01822000020183623 -0.48124000430107117
v 0.16553500667214394 -0.017320000333711505 -1.6807149350643158
v 1.1814100295305252 -0.017790000420063734 -1.1814100295305252
vn 0.08712000250816346 0.03154000043869019 -0.17724000215530397
vn 0.08712000250816346 0.03154000043869019 -0.17724000215530397
vn 0.08712000250816346 0.03154000043869019 -0.17724000215530397
vn 0.1708799958229065 0.03217999935150147 -0.09882000088691711
vn 0.1708799958229065 0.03217999935150147 -0.09882000088691711
vn 0.1708799958229065 0.03217999935150147 -0.09882000088691711
vn 0.19747999906539918 0.031600001454353335 0.000800000037997961
vn 0.19747999906539918 0.031600001454353335 0.000800000037997961
vn 0.19747999906539918 0.031600001454353335 0.000800000037997961
vn 0.13552000522613525 0.0311599999666214 0.14376000165939332
vn 0.13552000522613525 0.0311599999666214 0.14376000165939332
vn 0.13552000522613525 0.0311599999666214 0.14376000165939332
vn 0.01265999972820282 0.03154000043869019 0.1970800042152405
vn 0.01265999972820282 0.03154000043869019 0.1970800042152405
vn 0.01265999972820282 0.03154000043869019 0.1970800042152405
vn -0.12003999948501587 0.03154000043869019 0.1568400025367737
vn -0.12003999948501587 0.03154000043869019 0.1568400025367737
vn -0.12003999948501587 0.03154000043869019 0.1568400025367737
vn -0.18894000053405763 0.03188000023365021 0.0573199987411499
vn -0.18894000053405763 0.03188000023365021 0.0573199987411499
vn -0.18894000053405763 0.03188000023365021 0.0573199987411499
vn -0.18466000556945802 0.0311599999666214 -0.0701799988746643
vn -0.18466000556945802 0.0311599999666214 -0.0701799988746643
vn -0.18466000556945802 0.0311599999666214 -0.0701799988746643
vn -0.06388000249862671 0.03068000078201294 -0.18702000379562378
vn -0.06388000249862671 0.03068000078201294 -0.18702000379562378
vn -0.06388000249862671 0.03068000078201294 -0.18702000379562378
vn -0.000019999999494757503 -0.2 -0.000039999998989515007
vn -0.000019999999494757503 -0.2 -0.000039999998989515007
vn -0.000019999999494757503 -0.2 -0.000039999998989515007
vn -0.000019999999494757503 -0.2 -0.000039999998989515007
vn -0.000019999999494757503 -0.2 -0.000039999998989515007
vn -0.000019999999494757503 -0.2 -0.000039999998989515007
vn -0.000019999999494757503 -0.2 -0.000039999998989515007
vn -0.000019999999494757503 -0.2 -0.000039999998989515007
vn -0.000019999999494757503 -0.2 -0.000039999998989515007
vn -0.000019999999494757503 -0.2 -0.000039999998989515007
vn -0.000019999999494757503 -0.2 -0.000039999998989515007
vn -0.000019999999494757503 -0.2 -0.000039999998989515007
vn -0.000019999999494757503 -0.2 -0.000039999998989515007
vn -0.000019999999494757503 -0.2 -0.000039999998989515007
vn -0.000019999999494757503 -0.2 -0.000039999998989515007
vn -0.000019999999494757503 -0.2 -0.000039999998989515007
vn -0.000019999999494757503 -0.2 -0.000039999998989515007
vn -0.000019999999494757503 -0.2 -0.000039999998989515007
vn -0.000019999999494757503 -0.2 -0.000039999998989515007
vn -0.000019999999494757503 -0.2 -0.000039999998989515007
vn -0.000019999999494757503 -0.2 -0.000039999998989515007
f 127//127 128//128 129//129
f 130//130 131//131 132//132
f 133//133 134//134 135//135
f 136//136 137//137 138//138
f 139//139 140//140 141//141
f 142//142 143//143 144//144
f 145//145 146//146 147//147
f 148//148 149//149 150//150
f 151//151 152//152 153//153
f 154//154 155//155 156//156
f 157//157 158//158 159//159
f 160//160 161//161 162//162
f 163//163 164//164 165//165
f 166//166 167//167 168//168
f 169//169 170//170 171//171
f 172//172 173//173 174//174
